<mxfile host="app.diagrams.net" agent="Mozilla/5.0 (Windows NT 10.0; Win64; x64) AppleWebKit/537.36 (KHTML, like Gecko) Chrome/129.0.0.0 Safari/537.36" version="24.7.13">
  <diagram name="Page-1" id="kB9N16Z1OABT0F7ZJpFy">
    <mxGraphModel dx="1290" dy="530" grid="1" gridSize="10" guides="1" tooltips="1" connect="1" arrows="1" fold="1" page="1" pageScale="1" pageWidth="850" pageHeight="1100" math="0" shadow="0">
      <root>
        <mxCell id="0" />
        <mxCell id="1" parent="0" />
        <mxCell id="B_Tm8iieY_GqpGp_fDyj-3" value="" style="shape=image;verticalLabelPosition=bottom;labelBackgroundColor=default;verticalAlign=top;aspect=fixed;imageAspect=0;image=https://seeklogo.com/images/P/prometheus-monitoring-system-logo-3C07B67C00-seeklogo.com.png;" parent="1" vertex="1">
          <mxGeometry x="190" y="330" width="103.49" height="89" as="geometry" />
        </mxCell>
        <mxCell id="B_Tm8iieY_GqpGp_fDyj-4" value="" style="shape=flexArrow;endArrow=classic;html=1;rounded=0;" parent="1" edge="1">
          <mxGeometry width="50" height="50" relative="1" as="geometry">
            <mxPoint x="50" y="360" as="sourcePoint" />
            <mxPoint x="200" y="360" as="targetPoint" />
          </mxGeometry>
        </mxCell>
        <mxCell id="B_Tm8iieY_GqpGp_fDyj-5" value="&lt;b&gt;&lt;font style=&quot;font-size: 14px;&quot;&gt;Alert Log sent&lt;/font&gt;&lt;/b&gt;" style="text;html=1;align=center;verticalAlign=middle;resizable=0;points=[];autosize=1;strokeColor=none;fillColor=none;" parent="1" vertex="1">
          <mxGeometry x="50" y="330" width="120" height="30" as="geometry" />
        </mxCell>
        <mxCell id="B_Tm8iieY_GqpGp_fDyj-6" value="" style="shape=flexArrow;endArrow=classic;html=1;rounded=0;exitX=1;exitY=0.5;exitDx=0;exitDy=0;" parent="1" edge="1">
          <mxGeometry width="50" height="50" relative="1" as="geometry">
            <mxPoint x="293.49" y="374" as="sourcePoint" />
            <mxPoint x="430" y="374" as="targetPoint" />
          </mxGeometry>
        </mxCell>
        <mxCell id="B_Tm8iieY_GqpGp_fDyj-7" value="&lt;b&gt;&lt;font style=&quot;font-size: 14px;&quot;&gt;Web Hook Called&lt;/font&gt;&lt;/b&gt;" style="text;html=1;align=center;verticalAlign=middle;resizable=0;points=[];autosize=1;strokeColor=none;fillColor=none;" parent="1" vertex="1">
          <mxGeometry x="280" y="330" width="140" height="30" as="geometry" />
        </mxCell>
        <mxCell id="B_Tm8iieY_GqpGp_fDyj-8" value="" style="shape=image;verticalLabelPosition=bottom;labelBackgroundColor=default;verticalAlign=top;aspect=fixed;imageAspect=0;image=https://s3.dualstack.us-east-2.amazonaws.com/pythondotorg-assets/media/community/logos/python-logo-only.png;" parent="1" vertex="1">
          <mxGeometry x="440" y="330" width="79" height="95.73" as="geometry" />
        </mxCell>
        <mxCell id="B_Tm8iieY_GqpGp_fDyj-9" value="&lt;b&gt;&lt;font style=&quot;font-size: 14px;&quot;&gt;Rate Limiting Script&amp;nbsp;&lt;/font&gt;&lt;/b&gt;&lt;div&gt;&lt;b&gt;&lt;font size=&quot;3&quot;&gt;Executed&lt;/font&gt;&lt;/b&gt;&lt;/div&gt;" style="text;html=1;align=center;verticalAlign=middle;resizable=0;points=[];autosize=1;strokeColor=none;fillColor=none;" parent="1" vertex="1">
          <mxGeometry x="399.5" y="419" width="160" height="50" as="geometry" />
        </mxCell>
      </root>
    </mxGraphModel>
  </diagram>
</mxfile>
